<svg enable-background="new 0 0 478.7 221.7" viewBox="0 0 478.7 221.7" xmlns="http://www.w3.org/2000/svg"><g fill="#fff"><path d="m51.7 50.5h-32l-8.7 18.5h-10l28.2-59.2h13.1l28.3 59.2h-10.2zm-2.8-5.9-13.3-28.2-13.1 28.2z"/><path d="m85.2 9v60h-9.2v-60z"/><path d="m107.2 9v60h-9.3v-60z"/><path d="m164.4 48h-40c0 10.3 6.9 16.7 16.2 16.7 7.7 0 14-4.5 15.3-10.7l8.2.5c-1.4 9.2-11.1 16.1-23.8 16.1-14.5 0-25.3-8.9-25.3-23 0-13.9 10.7-23.1 25.2-23.1 14 0 24.4 8.4 24.4 21-.1.9-.1 1.7-.2 2.5zm-9-4.5c0-8.1-6.5-13.9-15.3-13.9s-14.9 5.7-15.5 14.1z"/><path d="m173.2 26.3h9.3l-.4 11h.7c1.2-6.7 6.3-11.5 14.2-11.5 1.6 0 3.2.2 4.7.5l-.2 7.9c-1.9-.4-3.8-.7-5.8-.7-8.5 0-13.3 6-13.3 16.6v18.9h-9.3v-42.7z"/><path d="m258.4 72.3c0 9.5-11.3 15.1-28.8 15.1-16 0-25.7-5.1-25.7-12.9 0-4.3 3.1-7.9 8.1-9.4-3.4-1.5-5.4-4-5.4-7.1 0-4.3 3.7-7 9.5-7.2v-.4c-4.7-2.1-8-6.2-8-11.1 0-8.7 9.3-14.8 23.1-14.8 4.9-.1 9.7.8 14.2 2.8 1.4-6.2 6.1-9.4 12.4-9.2l.3 6c-5.2-.2-8.4 1.7-9.3 5.2 3.2 2.3 5.2 5.9 5.2 9.9 0 8.6-8.9 14.6-22.3 14.6-5.9 0-9.9-1.4-13.4-1.4-3 0-4.8 1.3-4.8 3.4 0 2.4 3 3.9 8.1 3.9h16.1c13 0 20.7 4.8 20.7 12.6zm-9.2 1.7c0-4.4-4.4-7.1-11.3-7.1h-16.1c-1.5 0-3-.1-4.5-.3-2.5 1.5-4 4.1-4.2 6.9 0 5.8 6.8 9.6 17.7 9.6 11.1-.1 18.4-3.7 18.4-9.1zm-31.9-34.8c0 5.9 5.8 10.1 14.1 10.1 7.8 0 13.4-4.1 13.4-10s-5.6-10.1-13.9-10.1c-7.8.1-13.6 4-13.6 10z"/><path d="m367.9 45.2v23.8h-9.3v-22.8c0-9.1-4.9-14.6-12.9-14.6-8.3 0-13.3 5.7-13.3 15.1v22.3h-9.3v-42.7h9.2l-.1 10.6h.7c1.9-7 8.1-11.4 16.4-11.4 11.5 0 18.6 7.5 18.6 19.7z"/><path d="m284.7 24.8c8.8 0 16.3 4.7 18.4 11.2h.4v-9.7h9.3v42.7h-9.3v-9.8h-.4c-2.1 6.7-9.7 11.2-18.2 11.2-14.2 0-24.1-9.8-24.1-22.9 0-13.3 10.2-22.7 23.9-22.7zm2.2 40.1c10 0 17.1-7.4 17.1-17.3 0-10.1-7.2-17.2-16.5-17.2-10 0-17.1 7.4-17.1 17.4-.1 10.1 7.1 17.1 16.5 17.1z"/><path d="m51.7 135.6h-32l-8.7 18.5h-10l28.2-59.1h13.1l28.3 59.1h-10.2zm-2.8-5.9-13.3-28.1-13.2 28.1z"/><path d="m120.8 133.1h-40c0 10.3 6.9 16.7 16.2 16.7 7.7 0 14-4.5 15.3-10.7l8.2.5c-1.4 9.2-11.1 16.1-23.8 16.1-14.5 0-25.4-8.9-25.4-23 0-13.9 10.7-23.1 25.2-23.1 14 0 24.4 8.4 24.4 21 .1.9 0 1.7-.1 2.5zm-9-4.4c0-8.1-6.5-13.9-15.3-13.9s-14.9 5.8-15.5 14.1z"/><path d="m127 140.6 8.4-.4c1.3 6.4 6.8 10.6 15.4 10.6 6.8 0 11.6-2.6 11.6-7 0-3.8-3.2-6.2-9.2-7.1l-9.2-1.1c-10.2-1.3-14.7-6-14.7-12.3 0-8 8-13.3 19.5-13.3 12.3 0 20.5 6 21.5 14.6l-8.3.3c-.8-6.4-6-10.2-13.5-10.2-6.4 0-10.6 2.8-10.6 7.1 0 3.6 2.7 5.8 7.6 6.4l9.3 1.2c10 1.2 16.7 5.4 16.7 12.9 0 8.4-8.9 13.4-21 13.4-13.1 0-22-5.9-23.5-15.1z"/><path d="m258.4 130.3v23.7h-9.3v-22.7c0-9.1-4.8-14.6-12.8-14.6-8.3 0-13.3 5.7-13.3 15.1v22.2h-9.3v-60h9.3v28h.5c1.9-7 8.1-11.4 16.3-11.4 11.6 0 18.6 7.5 18.6 19.7z"/><path d="m314.8 133.1h-40c0 10.3 6.9 16.7 16.2 16.7 7.7 0 14-4.5 15.3-10.7l8.2.5c-1.4 9.2-11.1 16.1-23.8 16.1-14.5 0-25.3-8.9-25.3-23 0-13.9 10.7-23.1 25.2-23.1 14 0 24.4 8.4 24.4 21 0 .9-.1 1.7-.2 2.5zm-9-4.4c0-8.1-6.5-13.9-15.3-13.9s-14.9 5.8-15.5 14.1z"/><path d="m356.9 99.1c0-3.2 2.6-5.2 6.4-5.2s6.5 2 6.5 5.2-2.6 5.2-6.5 5.2-6.4-2.1-6.4-5.2zm11 12.3v42.7h-9.3v-42.7z"/><path d="m377.4 132.9c0-14 11.2-23.1 26.3-23.1 13.8 0 23.6 7.6 24.5 17.9l-8.9.3c-.8-7.2-7.3-12.5-15.7-12.5-9.8 0-16.6 7.3-16.6 17.1s6.8 17.1 16.9 17.1c8.5 0 15.3-5.1 16.1-12.3l8.7.2c-.9 10.2-10.6 18.2-25 18.2-14.8 0-26.3-8.7-26.3-22.9z"/><path d="m434.4 140.6 8.4-.4c1.3 6.4 6.8 10.6 15.4 10.6 6.8 0 11.6-2.6 11.6-7 0-3.8-3.2-6.2-9.2-7.1l-9.2-1.1c-10.2-1.3-14.7-6-14.7-12.3 0-8 8-13.3 19.5-13.3 12.3 0 20.5 6 21.5 14.6l-8.3.3c-.8-6.4-6-10.2-13.5-10.2-6.4 0-10.6 2.8-10.6 7.1 0 3.6 2.7 5.8 7.6 6.4l9.3 1.2c10 1.2 16.7 5.4 16.7 12.9 0 8.4-8.9 13.4-21 13.4-13.1 0-22-5.9-23.5-15.1z"/><path d="m188.5 117.2h14.6v-5.8h-14.6v-11.4h-9.2v38.2c0 11.2 6.1 16.6 15.4 16.6 2.9 0 5.8-.3 8.6-1l.1-6.5c-1.9.5-3.8.7-5.7.8-5.8 0-9.1-3.9-9.1-10.8z"/><path d="m332.4 117.2h14.6v-5.8h-14.6v-11.4h-9.2v38.2c0 11.2 6.1 16.6 15.4 16.6 2.9 0 5.8-.3 8.6-1l.1-6.5c-1.9.5-3.8.7-5.7.8-5.8 0-9.1-3.9-9.1-10.8z"/><path d="m17.7 200.3v8.1c0 1.8.1 3.6.5 5.4h-3.4c-.2-1-.3-2-.3-3.1h-.1c-1.5 2.2-3.9 3.5-7.3 3.5-4.4 0-7.2-2.6-7.2-6.2s2-5.7 8-6.6c1.9-.3 4.4-.6 6.1-.7v-.8c0-3.5-2-4.9-4.8-4.9-3.1 0-4.7 1.7-4.8 4.2h-3.5c.2-4 3.1-7 8.5-7 5.1-.1 8.3 2.6 8.3 8.1zm-3.5 3.2c-1.6.1-3.9.4-5.5.7-3.6.5-4.9 1.6-4.9 3.7s1.6 3.6 4.3 3.6c1.6.1 3.2-.5 4.4-1.7 1.3-1.3 1.7-2.5 1.7-5z"/><path d="m41.6 201v12.9h-3.7v-12.6c0-4.4-1.8-6-4.8-6s-5.5 2.2-5.5 6.5v12.1h-3.7v-21.1h3.5v2.8h.1c1.4-2.1 3.9-3.3 6.4-3.2 4.9-.1 7.7 2.8 7.7 8.6z"/><path d="m61.7 205-3.2 8.8h-4.1l11.2-29.6h5.2l11.3 29.6h-4.1l-3.2-8.8zm10.8-6c-1.5-4.1-2.9-7.9-4.3-12h-.1c-1.4 4.1-2.8 7.9-4.3 12l-1 2.7h10.6z"/><path d="m89.2 195.6c1.4-2.2 3.8-3.6 6.4-3.4 5.4 0 8.8 4.3 8.8 11.1s-3.4 11.1-8.8 11.1c-2.6.1-5.1-1.3-6.4-3.6h-.1v3.1h-3.6v-29.6h3.7zm-.3 7.6c0 5 2.2 8.1 5.7 8.1s5.9-3.2 5.9-8.1-2.3-8.1-5.9-8.1-5.7 3.1-5.7 8.1z"/><path d="m113.1 195.6c1.4-2.2 3.8-3.6 6.4-3.4 5.4 0 8.8 4.3 8.8 11.1s-3.4 11.1-8.9 11.1c-2.6.1-5.1-1.3-6.4-3.6v3.1h-3.6v-29.6h3.6zm-.2 7.6c0 5 2.2 8.1 5.7 8.1s5.9-3.2 5.9-8.1-2.3-8.1-5.9-8.1-5.8 3.1-5.7 8.1z"/><path d="m138.8 213.8-10.2-29.6h4l4.5 13.2c1.4 4.2 2.8 8.4 4.1 12.7h.1c1.3-4.2 2.7-8.5 4.2-12.7l4.5-13.2h4l-10.2 29.6z"/><path d="m157.6 188.4v-4.1h3.7v4.1zm0 25.4v-21.1h3.7v21.1z"/><path d="m181.6 207.5h3.7c-.7 3.7-3.9 6.9-9.3 6.9-6.2 0-9.9-4.5-9.9-11.4 0-6.2 3.6-10.8 9.8-10.8 4.5-.2 8.4 2.9 9.2 7.4.3 1.5.5 3 .4 4.5h-15.8c.2 5.2 2.8 7.6 6.3 7.6 3.2-.1 5.1-1.8 5.6-4.2zm-11.8-6.3h12.2c-.4-4.1-2.8-6.3-6-6.3s-5.8 2.3-6.2 6.3z"/><path d="m217.5 200.2h-3.8c-.1-2.8-2.4-5.1-5.2-5.1-3.7 0-6 3.1-6 8.1s2.3 8.1 6 8.1c2.9 0 5-2.3 5.2-5.4h3.8c-.2 4.8-4.2 8.5-9 8.4-6.1 0-9.9-4.3-9.9-11.1s3.8-11.1 9.9-11.1c4.7-.2 8.7 3.4 9 8.1z"/><path d="m241 203.3c0 6.9-3.9 11.1-10 11.1s-10-4.2-10-11.1 3.8-11.1 10-11.1 10 4.2 10 11.1zm-16.2 0c0 5 2.4 8.1 6.2 8.1s6.2-3.1 6.2-8.1-2.4-8.1-6.2-8.1-6.2 3-6.2 8.1z"/><path d="m275.5 200.8v13h-3.6v-12.7c0-4.2-1.6-5.8-4.3-5.8-3.1 0-5 2.6-5 6.6v12h-3.7v-13.3c0-3.3-1.6-5.3-4.3-5.3-3.1 0-5 2.6-5 6.9v11.7h-3.6v-21.1h3.5v2.6h.1c1.3-2 3.5-3.1 5.9-3.1 2.7-.1 5.2 1.5 6.3 4 1.3-2.5 3.9-4.1 6.7-4 4.4 0 7 2.8 7 8.5z"/><path d="m300.8 203.2c0 6.7-3.5 11.1-8.8 11.1-2.6.1-5.1-1.2-6.4-3.5h-.1v10.7h-3.7v-28.8h3.6v3h.1c1.3-2.3 3.8-3.7 6.4-3.6 5.5.1 8.9 4.4 8.9 11.1zm-15.5 0c0 5 2.2 8.1 5.7 8.1s5.9-3.2 5.9-8.1-2.3-8.1-5.9-8.1c-3.5 0-5.7 3.1-5.7 8.1z"/><path d="m321.6 200.3v8.1c0 1.8.1 3.6.5 5.4h-3.3c-.2-1-.3-2-.3-3.1h-.1c-1.5 2.2-3.9 3.5-7.3 3.5-4.4 0-7.1-2.6-7.1-6.2s2-5.7 8-6.6c1.9-.3 4.4-.6 6.1-.7v-.8c0-3.5-2-4.9-4.8-4.9-3.1 0-4.7 1.7-4.8 4.2h-3.6c.2-4 3.1-7 8.5-7 5-.1 8.2 2.6 8.2 8.1zm-3.6 3.2c-1.6.1-3.9.4-5.5.7-3.6.5-4.9 1.6-4.9 3.7s1.6 3.6 4.3 3.6c1.6.1 3.2-.5 4.4-1.7 1.3-1.3 1.7-2.5 1.7-5z"/><path d="m345.5 201v12.9h-3.6v-12.6c0-4.4-1.8-6-4.9-6-3 0-5.5 2.2-5.5 6.5v12.1h-3.7v-21.1h3.5v2.8h.1c1.4-2.1 3.9-3.3 6.4-3.2 4.8-.1 7.7 2.8 7.7 8.6z"/><path d="m359.8 214.8c-2.1 5.4-4.2 6.9-8.7 6.9-.6 0-1.3 0-1.9-.2v-3.1c.6.2 1.2.3 1.8.2 2.8 0 3.9-1 5.2-4.7l-8-21.2h4l6.1 16.8h.1l6.1-16.8h3.9z"/></g></svg>