<svg viewBox="0 0 125 73" xmlns="http://www.w3.org/2000/svg"><path d="m17 19.5h-7.55l-2 4.61h-2.45l6.67-14.7h3.1l6.71 14.7h-2.39zm-.63-1.5-3.14-7-3.12 7z"/><path d="m25 9.2v14.91h-2.2v-14.91z"/><path d="m30.18 9.2v14.91h-2.18v-14.91z"/><path d="m43.73 18.89h-9.48a3.81 3.81 0 0 0 3.85 4.16 3.54 3.54 0 0 0 3.62-2.67l1.94.13c-.34 2.29-2.62 4-5.64 4-3.45 0-6-2.21-6-5.72s2.54-5.73 6-5.73 5.78 2.1 5.78 5.22a3 3 0 0 1 -.07.61zm-2.13-1.11a3.43 3.43 0 0 0 -3.6-3.46 3.57 3.57 0 0 0 -3.68 3.5z"/><path d="m45.83 13.5h2.17l-.1 2.73h.18a3.26 3.26 0 0 1 3.36-2.85 6.09 6.09 0 0 1 1.12.12l-.06 1.95a6.24 6.24 0 0 0 -1.36-.16c-2 0-3.14 1.49-3.14 4.11v4.71h-2.2z"/><path d="m66 24.94c0 2.35-2.68 3.75-6.82 3.75-3.81 0-6.09-1.26-6.09-3.21a2.5 2.5 0 0 1 1.91-2.33 2 2 0 0 1 -1.28-1.76c0-1.07.88-1.74 2.26-1.78v-.11a3.08 3.08 0 0 1 -1.89-2.75c0-2.16 2.2-3.67 5.48-3.67a7.64 7.64 0 0 1 3.36.69 2.72 2.72 0 0 1 2.93-2.29l.08 1.52c-1.23 0-2 .42-2.21 1.29a3.06 3.06 0 0 1 1.27 2.42c0 2.14-2.1 3.63-5.28 3.63-1.4 0-2.34-.35-3.16-.35s-1.14.33-1.14.84.71 1 1.92 1h3.83c3.01-.04 4.83 1.17 4.83 3.11zm-2.18.41c0-1.09-1-1.76-2.68-1.76h-3.83a6.32 6.32 0 0 1 -1.06-.09 2.22 2.22 0 0 0 -1 1.72c0 1.45 1.61 2.38 4.21 2.38s4.36-.9 4.36-2.25zm-7.55-8.64c0 1.47 1.39 2.52 3.35 2.52s3.18-1 3.18-2.48-1.32-2.52-3.3-2.52-3.23.99-3.23 2.48z"/><path d="m92 18.2v5.91h-2.2v-5.66c0-2.26-1.16-3.63-3.07-3.63s-3.14 1.41-3.14 3.76v5.53h-2.2v-10.61h2.18v2.62h.16a3.78 3.78 0 0 1 3.88-2.83c2.67 0 4.39 1.87 4.39 4.91z"/><path d="m72.25 13.12a4.44 4.44 0 0 1 4.36 2.79h.1v-2.41h2.2v10.61h-2.21v-2.44h-.09a4.4 4.4 0 0 1 -4.33 2.8 5.5 5.5 0 0 1 -5.7-5.69 5.48 5.48 0 0 1 5.67-5.66zm.51 10a4 4 0 0 0 4-4.3 4 4 0 0 0 -3.92-4.28 4.05 4.05 0 0 0 -4 4.32 4 4 0 0 0 3.92 4.26z"/><path d="m17 40.65h-7.55l-2 4.6h-2.45l6.67-14.68h3.1l6.71 14.69h-2.39zm-.66-1.47-3.14-7-3.12 7z"/><path d="m33.42 40h-9.48c0 2.56 1.64 4.16 3.84 4.16a3.52 3.52 0 0 0 3.62-2.67l2 .13c-.34 2.29-2.63 4-5.65 4-3.44 0-6-2.21-6-5.72a5.6 5.6 0 0 1 6-5.73c3.32 0 5.79 2.1 5.79 5.22a4 4 0 0 1 -.12.61zm-2.14-1.11a3.43 3.43 0 0 0 -3.62-3.46 3.57 3.57 0 0 0 -3.66 3.57z"/><path d="m34.88 41.91 2-.11c.3 1.6 1.62 2.63 3.64 2.63 1.62 0 2.74-.65 2.74-1.74s-.76-1.55-2.18-1.76l-2.18-.28c-2.42-.31-3.48-1.49-3.48-3.06 0-2 1.89-3.32 4.62-3.32 2.93 0 4.87 1.49 5.09 3.63l-2 .09a2.9 2.9 0 0 0 -3.2-2.54c-1.52 0-2.52.69-2.52 1.76 0 .88.64 1.43 1.8 1.59l2.2.3c2.37.29 4 1.34 4 3.21 0 2.08-2.11 3.34-5 3.34-3.07-.01-5.17-1.47-5.53-3.74z"/><path d="m66 39.35v5.9h-2.2v-5.65c0-2.27-1.14-3.63-3.05-3.63s-3.14 1.41-3.14 3.76v5.52h-2.2v-14.91h2.2v6.94h.12a3.8 3.8 0 0 1 3.87-2.84c2.75 0 4.4 1.87 4.4 4.91z"/><path d="m79.38 40h-9.48a3.81 3.81 0 0 0 3.85 4.16 3.53 3.53 0 0 0 3.62-2.67l1.94.13c-.34 2.29-2.62 4-5.65 4-3.44 0-6-2.21-6-5.72a5.6 5.6 0 0 1 6-5.73c3.32 0 5.79 2.1 5.79 5.22a3 3 0 0 1 -.07.61zm-2.13-1.11a3.44 3.44 0 0 0 -3.63-3.46 3.57 3.57 0 0 0 -3.68 3.57z"/><path d="m89.35 31.58a1.34 1.34 0 0 1 1.51-1.3c.9 0 1.53.5 1.53 1.3s-.61 1.28-1.53 1.28-1.51-.51-1.51-1.28zm2.65 3.07v10.6h-2.24v-10.6z"/><path d="m94.21 40c0-3.48 2.66-5.75 6.23-5.75 3.26 0 5.58 1.89 5.8 4.45l-2.1.08a3.59 3.59 0 0 0 -3.72-3.11 4 4 0 0 0 -4 4.27 4 4 0 0 0 4 4.23 3.62 3.62 0 0 0 3.82-3.06l2.06.06c-.22 2.54-2.52 4.52-5.92 4.52s-6.17-2.18-6.17-5.69z"/><path d="m107.7 41.91 2-.11c.3 1.6 1.62 2.63 3.65 2.63 1.62 0 2.74-.65 2.74-1.74s-.76-1.55-2.19-1.76l-2.18-.28c-2.42-.31-3.48-1.49-3.48-3.06 0-2 1.9-3.32 4.62-3.32 2.93 0 4.87 1.49 5.09 3.63l-1.95.1a2.91 2.91 0 0 0 -3.21-2.54c-1.52 0-2.52.69-2.52 1.76 0 .88.64 1.43 1.8 1.59l2.21.3c2.36.29 4 1.34 4 3.21 0 2.08-2.1 3.34-5 3.34-3.12-.02-5.22-1.48-5.58-3.75z"/><path d="m49.46 36.1h3.46v-1.45h-3.46v-2.84h-2.18v9.49c0 2.79 1.44 4.11 3.64 4.11a8.25 8.25 0 0 0 2-.24v-1.62a5.65 5.65 0 0 1 -1.36.19c-1.38 0-2.16-1-2.16-2.69z"/><path d="m83.53 36.1h3.47v-1.45h-3.47v-2.84h-2.18v9.49c0 2.79 1.44 4.11 3.64 4.11a8.33 8.33 0 0 0 2.01-.24v-1.62a5.79 5.79 0 0 1 -1.36.19c-1.39 0-2.16-1-2.16-2.69z"/><path d="m9 56.74v2a6.68 6.68 0 0 0 .12 1.34h-.82a4.77 4.77 0 0 1 -.07-.76 1.89 1.89 0 0 1 -1.73.88 1.53 1.53 0 0 1 -1.69-1.54c0-.89.47-1.41 1.89-1.65.45-.08 1.06-.15 1.45-.18v-.2c0-.87-.47-1.23-1.13-1.23a1 1 0 0 0 -1.14 1h-.88a1.79 1.79 0 0 1 2-1.74 1.79 1.79 0 0 1 2 2.08zm-.83.79c-.39 0-.93.1-1.31.17-.86.13-1.16.39-1.16.91a.91.91 0 0 0 1 .89 1.36 1.36 0 0 0 1-.41 1.53 1.53 0 0 0 .41-1.24z"/><path d="m14.64 56.91v3.2h-.87v-3.11c0-1.09-.43-1.49-1.15-1.49s-1.3.56-1.3 1.61v3h-.86v-5.27h.83v.69a1.75 1.75 0 0 1 1.52-.81c1.19.01 1.83.73 1.83 2.18z"/><path d="m19.4 57.9-.77 2.19h-1l2.66-7.35h1.24l2.67 7.35h-1l-.77-2.19zm2.6-1.49c-.35-1-.68-2-1-3-.34 1-.66 2-1 3l-.24.67h2.44z"/><path d="m25.92 55.57a1.67 1.67 0 0 1 1.52-.85c1.27 0 2.09 1.07 2.09 2.74s-.82 2.76-2.1 2.76a1.68 1.68 0 0 1 -1.52-.89v.76h-.91v-7.34h.87v2.82zm-.06 1.89c0 1.24.53 2 1.36 2s1.4-.79 1.4-2-.55-2-1.4-2-1.36.76-1.36 2z"/><path d="m31.59 55.57a1.67 1.67 0 0 1 1.52-.85c1.27 0 2.09 1.07 2.09 2.74s-.82 2.76-2.1 2.76a1.67 1.67 0 0 1 -1.52-.89v.76h-.88v-7.34h.87v2.82zm-.06 1.89c0 1.24.53 2 1.36 2s1.4-.79 1.4-2-.55-2-1.4-2-1.37.77-1.37 2z"/><path d="m37.68 60.09-2.41-7.34h.95l1.07 3.25c.34 1 .66 2.09 1 3.14.32-1 .64-2.1 1-3.14l1.06-3.27h1l-2.41 7.34z"/><path d="m42.12 53.77v-1h.88v1zm0 6.32v-5.24h.88v5.24z"/><path d="m47.82 58.53h.89a2.11 2.11 0 0 1 -2.2 1.71c-1.48 0-2.36-1.13-2.36-2.84 0-1.55.87-2.69 2.33-2.69a2.14 2.14 0 0 1 2.18 1.82 5.34 5.34 0 0 1 .1 1.13h-3.76c0 1.29.67 1.88 1.48 1.88a1.25 1.25 0 0 0 1.34-1.01zm-2.82-1.53h2.9c-.09-1-.66-1.55-1.42-1.55a1.49 1.49 0 0 0 -1.48 1.55z"/><path d="m56.32 56.71h-.91a1.25 1.25 0 0 0 -1.24-1.26c-.89 0-1.42.77-1.42 2s.54 2 1.42 2a1.3 1.3 0 0 0 1.24-1.33h.91a2.12 2.12 0 0 1 -2.13 2.08c-1.45 0-2.36-1.07-2.36-2.77s.91-2.76 2.36-2.76a2.07 2.07 0 0 1 2.13 2.04z"/><path d="m61.9 57.47c0 1.71-.92 2.77-2.37 2.77s-2.37-1.06-2.37-2.77.9-2.76 2.37-2.76 2.37 1.05 2.37 2.76zm-3.85 0c0 1.24.56 2 1.47 2s1.47-.77 1.47-2-.56-2-1.47-2-1.46.77-1.46 2z"/><path d="m70.07 56.85v3.23h-.86v-3.16c0-1.05-.39-1.44-1-1.44s-1.21.64-1.21 1.64v3h-.86v-3.33c0-.83-.38-1.31-1-1.31s-1.18.65-1.18 1.7v2.91h-.87v-5.24h.84v.65a1.65 1.65 0 0 1 1.4-.76 1.51 1.51 0 0 1 1.49 1 1.68 1.68 0 0 1 1.58-1c1.05 0 1.67.7 1.67 2.11z"/><path d="m76.06 57.46c0 1.67-.81 2.76-2.08 2.76a1.69 1.69 0 0 1 -1.53-.87v2.65h-.87v-7.15h.86v.75a1.63 1.63 0 0 1 1.56-.89c1.24.01 2.06 1.08 2.06 2.75zm-3.67 0c0 1.24.53 2 1.36 2s1.41-.79 1.41-2-.55-2-1.41-2-1.36.77-1.36 2z"/><path d="m81 56.74v2a6 6 0 0 0 .12 1.34h-.79a3.84 3.84 0 0 1 -.07-.76 1.91 1.91 0 0 1 -1.73.88 1.54 1.54 0 0 1 -1.7-1.54c0-.89.48-1.41 1.9-1.65.44-.08 1-.15 1.45-.18v-.2c0-.87-.48-1.23-1.13-1.23a1 1 0 0 0 -1.15 1h-.9a1.81 1.81 0 0 1 2-1.74 1.79 1.79 0 0 1 2 2.08zm-.84.79c-.38 0-.92.1-1.31.17-.85.13-1.15.39-1.15.91a.91.91 0 0 0 1 .89 1.36 1.36 0 0 0 1-.41 1.57 1.57 0 0 0 .4-1.24z"/><path d="m86.64 56.91v3.2h-.86v-3.11c0-1.09-.43-1.49-1.15-1.49s-1.3.56-1.3 1.61v3h-.87v-5.27h.84v.69a1.75 1.75 0 0 1 1.52-.81c1.18.01 1.82.73 1.82 2.18z"/><path d="m90 60.33c-.45 1.34-.94 1.67-2 1.67a1.38 1.38 0 0 1 -.45 0v-.76a1.52 1.52 0 0 0 .42.06c.66 0 .91-.25 1.24-1.18l-1.9-5.26h.94l1.41 4.14 1.46-4.17h.91z"/></svg>