<svg
    xmlns="http://www.w3.org/2000/svg"
    width="24.001"
    height="24.001"
    viewBox="0 0 24.001 24.001">
  <path
      id="Path_415"
      data-name="Path 415"
      d="M23.836,1.575,17.789-4.472a.556.556,0,0,0-.4-.164h-.483A9.707,9.707,0,0,0,19.5-11.25,9.748,9.748,0,0,0,9.75-21,9.748,9.748,0,0,0,0-11.25,9.748,9.748,0,0,0,9.75-1.5a9.725,9.725,0,0,0,6.614-2.588v.478a.576.576,0,0,0,.164.4l6.047,6.047a.563.563,0,0,0,.8,0l.464-.464A.563.563,0,0,0,23.836,1.575ZM9.75-3A8.244,8.244,0,0,1,1.5-11.25,8.244,8.244,0,0,1,9.75-19.5,8.244,8.244,0,0,1,18-11.25,8.244,8.244,0,0,1,9.75-3Z"
      transform="translate(0 21)"
      fill="#000" />
</svg>